<svg xmlns="http://www.w3.org/2000/svg" viewBox="0 0 181.417 184.252"><path d="M89.664 179.654c48.997 0 88.717-39.721 88.717-88.717 0-48.998-39.72-88.717-88.717-88.717C40.666 2.22.947 41.94.947 90.937c0 48.996 39.72 88.717 88.717 88.717z"/><path fill="#fff" d="M21.565 66.787c.56.56 1.26.84 2.1.84.84 0 1.54-.28 2.1-.84.56-.56.84-1.26.84-2.1 0-.84-.28-1.54-.84-2.1-.56-.56-1.26-.84-2.1-.84-.84 0-1.54.28-2.1.84-.56.56-.84 1.26-.84 2.1 0 .839.28 1.54.84 2.1zm-.42 41.509c0 .654.245 1.225.735 1.715s1.061.735 1.715.735c.653 0 1.225-.245 1.715-.735s.735-1.061.735-1.715v-30.1c0-.653-.245-1.225-.735-1.715s-1.062-.735-1.715-.735c-.654 0-1.225.245-1.715.735s-.735 1.062-.735 1.715v30.1z"/><path fill="none" stroke="#fff" d="M21.565 66.787c.56.56 1.26.84 2.1.84.84 0 1.54-.28 2.1-.84.56-.56.84-1.26.84-2.1 0-.84-.28-1.54-.84-2.1-.56-.56-1.26-.84-2.1-.84-.84 0-1.54.28-2.1.84-.56.56-.84 1.26-.84 2.1 0 .839.28 1.54.84 2.1zm-.42 41.509c0 .654.245 1.225.735 1.715s1.061.735 1.715.735c.653 0 1.225-.245 1.715-.735s.735-1.061.735-1.715v-30.1c0-.653-.245-1.225-.735-1.715s-1.062-.735-1.715-.735c-.654 0-1.225.245-1.715.735s-.735 1.062-.735 1.715v30.1z"/><path fill="#1bb6e0" d="M32.762 122.146c0 .652.245 1.225.735 1.715s1.061.734 1.715.734c.653 0 1.225-.244 1.715-.734s.735-1.062.735-1.715v-16.521c1.306 1.634 3.36 3.162 6.16 4.585 2.8 1.423 5.53 2.135 8.19 2.135 2.66 0 5.156-.502 7.49-1.505 2.333-1.003 4.375-2.38 6.125-4.13s3.126-3.791 4.13-6.125c1.003-2.333 1.505-4.83 1.505-7.49s-.502-5.156-1.505-7.49c-1.004-2.333-2.38-4.375-4.13-6.125s-3.792-3.125-6.125-4.13c-2.334-1.003-4.83-1.505-7.49-1.505s-5.157.502-7.49 1.505c-2.334 1.004-4.375 2.38-6.125 4.13s-3.127 3.792-4.13 6.125c-1.004 2.334-1.505 4.83-1.505 7.49v29.051zm6.02-34.615c.746-1.75 1.773-3.278 3.08-4.585 1.306-1.306 2.835-2.333 4.585-3.08 1.75-.746 3.605-1.12 5.565-1.12 1.96 0 3.815.374 5.565 1.12 1.75.747 3.278 1.774 4.585 3.08 1.306 1.307 2.333 2.835 3.08 4.585.746 1.75 1.12 3.605 1.12 5.565 0 1.96-.374 3.815-1.12 5.565-.747 1.75-1.774 3.279-3.08 4.585-1.307 1.307-2.835 2.334-4.585 3.08-1.75.747-3.605 1.12-5.565 1.12-1.96 0-3.815-.373-5.565-1.12-1.75-.746-3.279-1.773-4.585-3.08-1.307-1.306-2.334-2.835-3.08-4.585-.747-1.75-1.12-3.605-1.12-5.565 0-1.96.373-3.815 1.12-5.565zm37.45 20.685c0 .654.245 1.225.735 1.715s1.061.735 1.715.735c.653 0 1.225-.245 1.715-.735s.735-1.061.735-1.715v-44.1c0-.653-.245-1.225-.735-1.715s-1.062-.735-1.715-.735c-.654 0-1.225.245-1.715.735s-.735 1.062-.735 1.715v44.1zm10.219-41.51c.56.56 1.26.84 2.1.84s1.54-.28 2.1-.84c.56-.56.84-1.26.84-2.1 0-.84-.28-1.54-.84-2.1-.56-.56-1.26-.84-2.1-.84s-1.54.28-2.1.84c-.56.56-.84 1.26-.84 2.1.001.84.28 1.54.84 2.1zm-.42 41.51c0 .654.245 1.225.735 1.715s1.061.735 1.715.735c.653 0 1.225-.245 1.715-.735s.735-1.061.735-1.715v-30.1c0-.653-.245-1.225-.735-1.715s-1.062-.735-1.715-.735c-.654 0-1.225.245-1.715.735s-.735 1.062-.735 1.715v30.1zm34.124-2.135c-1.937.91-3.885 1.365-5.845 1.365s-3.815-.373-5.565-1.12c-1.75-.746-3.279-1.773-4.585-3.08-1.307-1.306-2.334-2.835-3.08-4.585-.747-1.75-1.12-3.605-1.12-5.565 0-1.96.373-3.815 1.12-5.565.746-1.75 1.773-3.278 3.08-4.585 1.306-1.306 2.835-2.333 4.585-3.08 1.75-.746 3.605-1.12 5.565-1.12 1.96 0 3.978.444 6.055 1.33 2.076.887 3.885 2.45 5.425 4.69.514.607 1.016 1.155 1.505 1.645.49.49 1.131.642 1.926.455.605-.14 1.025-.455 1.26-.945.232-.49.28-1.085.14-1.785-.186-1.073-.887-2.333-2.1-3.78-2.147-2.333-4.388-4-6.72-5.005-2.335-1.003-4.83-1.505-7.49-1.505s-5.157.502-7.49 1.505c-2.334 1.004-4.375 2.38-6.125 4.13s-3.127 3.792-4.13 6.125c-1.004 2.334-1.505 4.83-1.505 7.49s.501 5.157 1.505 7.49c1.003 2.334 2.38 4.375 4.13 6.125s3.791 3.127 6.125 4.13c2.333 1.003 4.83 1.505 7.49 1.505s5.155-.502 7.49-1.505c2.332-1.003 4.572-2.811 6.72-5.425 1.073-1.213 1.75-2.333 2.03-3.36.232-.7.186-1.353-.141-1.96-.327-.606-.864-.956-1.609-1.05-.654-.093-1.237.082-1.75.525-.515.444-.957.992-1.33 1.645-1.775 2.334-3.63 3.955-5.566 4.865zm16.206-39.375c.56.56 1.26.84 2.1.84.84 0 1.54-.28 2.1-.84.561-.56.841-1.26.841-2.1 0-.84-.28-1.54-.841-2.1-.56-.56-1.26-.84-2.1-.84-.84 0-1.54.28-2.1.84-.561.56-.841 1.26-.841 2.1 0 .84.28 1.54.841 2.1zm-.42 41.51c0 .654.244 1.225.734 1.715s1.062.735 1.715.735 1.226-.245 1.716-.735c.489-.49.734-1.061.734-1.715v-30.1c0-.653-.245-1.225-.734-1.715-.49-.49-1.062-.735-1.716-.735-.653 0-1.225.245-1.715.735s-.734 1.062-.734 1.715v30.1zm11.968-32.55h-1.12c-.654 0-1.225.245-1.715.735s-.735 1.062-.735 1.715c0 .654.245 1.225.735 1.715s1.061.735 1.715.735h1.12v27.65c0 .654.245 1.225.735 1.715.489.49 1.061.735 1.715.735.652 0 1.225-.245 1.715-.735s.734-1.061.734-1.715v-27.65h6.721c.652 0 1.225-.245 1.715-.735s.735-1.061.735-1.715c0-.653-.245-1.225-.735-1.715s-1.062-.735-1.715-.735h-6.721v-11.55c0-.653-.244-1.225-.734-1.715s-1.062-.735-1.715-.735c-.654 0-1.226.245-1.715.735-.49.49-.735 1.062-.735 1.715v11.55z"/><path fill="none" stroke="#1bb6e0" d="M32.762 122.146c0 .652.245 1.225.735 1.715s1.061.734 1.715.734c.653 0 1.225-.244 1.715-.734s.735-1.062.735-1.715v-16.521c1.306 1.634 3.36 3.162 6.16 4.585 2.8 1.423 5.53 2.135 8.19 2.135 2.66 0 5.156-.502 7.49-1.505 2.333-1.003 4.375-2.38 6.125-4.13s3.126-3.791 4.13-6.125c1.003-2.333 1.505-4.83 1.505-7.49s-.502-5.156-1.505-7.49c-1.004-2.333-2.38-4.375-4.13-6.125s-3.792-3.125-6.125-4.13c-2.334-1.003-4.83-1.505-7.49-1.505s-5.157.502-7.49 1.505c-2.334 1.004-4.375 2.38-6.125 4.13s-3.127 3.792-4.13 6.125c-1.004 2.334-1.505 4.83-1.505 7.49v29.051zm6.02-34.615c.746-1.75 1.773-3.278 3.08-4.585 1.306-1.306 2.835-2.333 4.585-3.08 1.75-.746 3.605-1.12 5.565-1.12 1.96 0 3.815.374 5.565 1.12 1.75.747 3.278 1.774 4.585 3.08 1.306 1.307 2.333 2.835 3.08 4.585.746 1.75 1.12 3.605 1.12 5.565 0 1.96-.374 3.815-1.12 5.565-.747 1.75-1.774 3.279-3.08 4.585-1.307 1.307-2.835 2.334-4.585 3.08-1.75.747-3.605 1.12-5.565 1.12-1.96 0-3.815-.373-5.565-1.12-1.75-.746-3.279-1.773-4.585-3.08-1.307-1.306-2.334-2.835-3.08-4.585-.747-1.75-1.12-3.605-1.12-5.565 0-1.96.373-3.815 1.12-5.565zm37.45 20.685c0 .654.245 1.225.735 1.715s1.061.735 1.715.735c.653 0 1.225-.245 1.715-.735s.735-1.061.735-1.715v-44.1c0-.653-.245-1.225-.735-1.715s-1.062-.735-1.715-.735c-.654 0-1.225.245-1.715.735s-.735 1.062-.735 1.715v44.1zm10.219-41.51c.56.56 1.26.84 2.1.84s1.54-.28 2.1-.84c.56-.56.84-1.26.84-2.1 0-.84-.28-1.54-.84-2.1-.56-.56-1.26-.84-2.1-.84s-1.54.28-2.1.84c-.56.56-.84 1.26-.84 2.1.001.84.28 1.54.84 2.1zm-.42 41.51c0 .654.245 1.225.735 1.715s1.061.735 1.715.735c.653 0 1.225-.245 1.715-.735s.735-1.061.735-1.715v-30.1c0-.653-.245-1.225-.735-1.715s-1.062-.735-1.715-.735c-.654 0-1.225.245-1.715.735s-.735 1.062-.735 1.715v30.1zm34.124-2.135c-1.937.91-3.885 1.365-5.845 1.365s-3.815-.373-5.565-1.12c-1.75-.746-3.279-1.773-4.585-3.08-1.307-1.306-2.334-2.835-3.08-4.585-.747-1.75-1.12-3.605-1.12-5.565 0-1.96.373-3.815 1.12-5.565.746-1.75 1.773-3.278 3.08-4.585 1.306-1.306 2.835-2.333 4.585-3.08 1.75-.746 3.605-1.12 5.565-1.12 1.96 0 3.978.444 6.055 1.33 2.076.887 3.885 2.45 5.425 4.69.514.607 1.016 1.155 1.505 1.645.49.49 1.131.642 1.926.455.605-.14 1.025-.455 1.26-.945.232-.49.28-1.085.14-1.785-.186-1.073-.887-2.333-2.1-3.78-2.147-2.333-4.388-4-6.72-5.005-2.335-1.003-4.83-1.505-7.49-1.505s-5.157.502-7.49 1.505c-2.334 1.004-4.375 2.38-6.125 4.13s-3.127 3.792-4.13 6.125c-1.004 2.334-1.505 4.83-1.505 7.49s.501 5.157 1.505 7.49c1.003 2.334 2.38 4.375 4.13 6.125s3.791 3.127 6.125 4.13c2.333 1.003 4.83 1.505 7.49 1.505s5.155-.502 7.49-1.505c2.332-1.003 4.572-2.811 6.72-5.425 1.073-1.213 1.75-2.333 2.03-3.36.232-.7.186-1.353-.141-1.96-.327-.606-.864-.956-1.609-1.05-.654-.093-1.237.082-1.75.525-.515.444-.957.992-1.33 1.645-1.775 2.334-3.63 3.955-5.566 4.865zm16.206-39.375c.56.56 1.26.84 2.1.84.84 0 1.54-.28 2.1-.84.561-.56.841-1.26.841-2.1 0-.84-.28-1.54-.841-2.1-.56-.56-1.26-.84-2.1-.84-.84 0-1.54.28-2.1.84-.561.56-.841 1.26-.841 2.1 0 .84.28 1.54.841 2.1zm-.42 41.51c0 .654.244 1.225.734 1.715s1.062.735 1.715.735 1.226-.245 1.716-.735c.489-.49.734-1.061.734-1.715v-30.1c0-.653-.245-1.225-.734-1.715-.49-.49-1.062-.735-1.716-.735-.653 0-1.225.245-1.715.735s-.734 1.062-.734 1.715v30.1zm11.968-32.55h-1.12c-.654 0-1.225.245-1.715.735s-.735 1.062-.735 1.715c0 .654.245 1.225.735 1.715s1.061.735 1.715.735h1.12v27.65c0 .654.245 1.225.735 1.715.489.49 1.061.735 1.715.735.652 0 1.225-.245 1.715-.735s.734-1.061.734-1.715v-27.65h6.721c.652 0 1.225-.245 1.715-.735s.735-1.061.735-1.715c0-.653-.245-1.225-.735-1.715s-1.062-.735-1.715-.735h-6.721v-11.55c0-.653-.244-1.225-.734-1.715s-1.062-.735-1.715-.735c-.654 0-1.226.245-1.715.735-.49.49-.735 1.062-.735 1.715v11.55z"/></svg>
