<svg version="1.1" id="Layer_1" xmlns="http://www.w3.org/2000/svg" xmlns:xlink="http://www.w3.org/1999/xlink" x="0px" y="0px" viewBox="0 0 181.417 184.252" style="enable-background:new 0 0 181.417 184.252;" xml:space="preserve">
<style type="text/css">
	.st0{fill:#FFFFFF;}
	.st1{fill:none;stroke:#FFFFFF;}
	.st2{fill:#1BB6E0;}
	.st3{fill:none;stroke:#1BB6E0;}
</style>
<g>
	<path d="M89.664,179.654c48.997,0,88.717-39.721,88.717-88.717c0-48.998-39.72-88.717-88.717-88.717
		c-48.998,0-88.717,39.72-88.717,88.717C0.947,139.933,40.667,179.654,89.664,179.654L89.664,179.654z"></path>
	<path class="st0" d="M21.565,66.787c0.56,0.56,1.26,0.84,2.1,0.84c0.84,0,1.54-0.28,2.1-0.84c0.56-0.56,0.84-1.26,0.84-2.1
		c0-0.84-0.28-1.54-0.84-2.1c-0.56-0.56-1.26-0.84-2.1-0.84c-0.84,0-1.54,0.28-2.1,0.84c-0.56,0.56-0.84,1.26-0.84,2.1
		C20.725,65.526,21.005,66.227,21.565,66.787L21.565,66.787z M21.145,108.296c0,0.654,0.245,1.225,0.735,1.715
		c0.49,0.49,1.061,0.735,1.715,0.735c0.653,0,1.225-0.245,1.715-0.735c0.49-0.49,0.735-1.061,0.735-1.715v-30.1
		c0-0.653-0.245-1.225-0.735-1.715c-0.49-0.49-1.062-0.735-1.715-0.735c-0.654,0-1.225,0.245-1.715,0.735
		c-0.49,0.49-0.735,1.062-0.735,1.715V108.296L21.145,108.296z"></path>
	<path class="st1" d="M21.565,66.787c0.56,0.56,1.26,0.84,2.1,0.84c0.84,0,1.54-0.28,2.1-0.84c0.56-0.56,0.84-1.26,0.84-2.1
		c0-0.84-0.28-1.54-0.84-2.1c-0.56-0.56-1.26-0.84-2.1-0.84c-0.84,0-1.54,0.28-2.1,0.84c-0.56,0.56-0.84,1.26-0.84,2.1
		C20.725,65.526,21.005,66.227,21.565,66.787L21.565,66.787z M21.145,108.296c0,0.654,0.245,1.225,0.735,1.715
		c0.49,0.49,1.061,0.735,1.715,0.735c0.653,0,1.225-0.245,1.715-0.735c0.49-0.49,0.735-1.061,0.735-1.715v-30.1
		c0-0.653-0.245-1.225-0.735-1.715c-0.49-0.49-1.062-0.735-1.715-0.735c-0.654,0-1.225,0.245-1.715,0.735
		c-0.49,0.49-0.735,1.062-0.735,1.715V108.296L21.145,108.296z"></path>
	<path class="st2" d="M32.762,122.146c0,0.652,0.245,1.225,0.735,1.715c0.49,0.49,1.061,0.734,1.715,0.734
		c0.653,0,1.225-0.244,1.715-0.734c0.49-0.49,0.735-1.062,0.735-1.715v-16.521c1.306,1.634,3.36,3.162,6.16,4.585
		c2.8,1.423,5.53,2.135,8.19,2.135c2.66,0,5.156-0.502,7.49-1.505c2.333-1.003,4.375-2.38,6.125-4.13
		c1.75-1.75,3.126-3.791,4.13-6.125c1.003-2.333,1.505-4.83,1.505-7.49c0-2.66-0.502-5.156-1.505-7.49
		c-1.004-2.333-2.38-4.375-4.13-6.125s-3.792-3.125-6.125-4.13c-2.334-1.003-4.83-1.505-7.49-1.505c-2.66,0-5.157,0.502-7.49,1.505
		c-2.334,1.004-4.375,2.38-6.125,4.13s-3.127,3.792-4.13,6.125c-1.004,2.334-1.505,4.83-1.505,7.49v28.84V122.146L32.762,122.146z
		 M38.782,87.531c0.746-1.75,1.773-3.278,3.08-4.585c1.306-1.306,2.835-2.333,4.585-3.08c1.75-0.746,3.605-1.12,5.565-1.12
		c1.96,0,3.815,0.374,5.565,1.12c1.75,0.747,3.278,1.774,4.585,3.08c1.306,1.307,2.333,2.835,3.08,4.585
		c0.746,1.75,1.12,3.605,1.12,5.565c0,1.96-0.374,3.815-1.12,5.565c-0.747,1.75-1.774,3.279-3.08,4.585
		c-1.307,1.307-2.835,2.334-4.585,3.08c-1.75,0.747-3.605,1.12-5.565,1.12c-1.96,0-3.815-0.373-5.565-1.12
		c-1.75-0.746-3.279-1.773-4.585-3.08c-1.307-1.306-2.334-2.835-3.08-4.585c-0.747-1.75-1.12-3.605-1.12-5.565
		C37.662,91.136,38.035,89.281,38.782,87.531L38.782,87.531z M76.232,108.216c0,0.654,0.245,1.225,0.735,1.715
		c0.49,0.49,1.061,0.735,1.715,0.735c0.653,0,1.225-0.245,1.715-0.735c0.49-0.49,0.735-1.061,0.735-1.715v-44.1
		c0-0.653-0.245-1.225-0.735-1.715c-0.49-0.49-1.062-0.735-1.715-0.735c-0.654,0-1.225,0.245-1.715,0.735
		c-0.49,0.49-0.735,1.062-0.735,1.715V108.216L76.232,108.216z M86.451,66.706c0.56,0.56,1.26,0.84,2.1,0.84s1.54-0.28,2.1-0.84
		c0.56-0.56,0.84-1.26,0.84-2.1c0-0.84-0.28-1.54-0.84-2.1c-0.56-0.56-1.26-0.84-2.1-0.84s-1.54,0.28-2.1,0.84
		c-0.56,0.56-0.84,1.26-0.84,2.1C85.612,65.446,85.891,66.146,86.451,66.706L86.451,66.706z M86.031,108.216
		c0,0.654,0.245,1.225,0.735,1.715c0.49,0.49,1.061,0.735,1.715,0.735c0.653,0,1.225-0.245,1.715-0.735
		c0.49-0.49,0.735-1.061,0.735-1.715v-30.1c0-0.653-0.245-1.225-0.735-1.715c-0.49-0.49-1.062-0.735-1.715-0.735
		c-0.654,0-1.225,0.245-1.715,0.735c-0.49,0.49-0.735,1.062-0.735,1.715V108.216L86.031,108.216z M120.155,106.081
		c-1.937,0.91-3.885,1.365-5.845,1.365c-1.96,0-3.815-0.373-5.565-1.12c-1.75-0.746-3.279-1.773-4.585-3.08
		c-1.307-1.306-2.334-2.835-3.08-4.585c-0.747-1.75-1.12-3.605-1.12-5.565c0-1.96,0.373-3.815,1.12-5.565
		c0.746-1.75,1.773-3.278,3.08-4.585c1.306-1.306,2.835-2.333,4.585-3.08c1.75-0.746,3.605-1.12,5.565-1.12
		c1.96,0,3.978,0.444,6.055,1.33c2.076,0.887,3.885,2.45,5.425,4.69c0.514,0.607,1.016,1.155,1.505,1.645
		c0.49,0.49,1.131,0.642,1.926,0.455c0.605-0.14,1.025-0.455,1.26-0.945c0.232-0.49,0.28-1.085,0.14-1.785
		c-0.186-1.073-0.887-2.333-2.1-3.78c-2.147-2.333-4.388-4-6.72-5.005c-2.335-1.003-4.83-1.505-7.49-1.505
		c-2.66,0-5.157,0.502-7.49,1.505c-2.334,1.004-4.375,2.38-6.125,4.13s-3.127,3.792-4.13,6.125c-1.004,2.334-1.505,4.83-1.505,7.49
		c0,2.66,0.501,5.157,1.505,7.49c1.003,2.334,2.38,4.375,4.13,6.125c1.75,1.75,3.791,3.127,6.125,4.13
		c2.333,1.003,4.83,1.505,7.49,1.505c2.66,0,5.155-0.502,7.49-1.505c2.332-1.003,4.572-2.811,6.72-5.425
		c1.073-1.213,1.75-2.333,2.03-3.36c0.232-0.7,0.186-1.353-0.141-1.96c-0.327-0.606-0.864-0.956-1.609-1.05
		c-0.654-0.093-1.237,0.082-1.75,0.525c-0.515,0.444-0.957,0.992-1.33,1.645C123.946,103.55,122.091,105.171,120.155,106.081
		L120.155,106.081z M136.361,66.706c0.56,0.56,1.26,0.84,2.1,0.84c0.84,0,1.54-0.28,2.1-0.84c0.561-0.56,0.841-1.26,0.841-2.1
		c0-0.84-0.28-1.54-0.841-2.1c-0.56-0.56-1.26-0.84-2.1-0.84c-0.84,0-1.54,0.28-2.1,0.84c-0.561,0.56-0.841,1.26-0.841,2.1
		C135.52,65.446,135.8,66.146,136.361,66.706L136.361,66.706z M135.941,108.216c0,0.654,0.244,1.225,0.734,1.715
		c0.49,0.49,1.062,0.735,1.715,0.735c0.653,0,1.226-0.245,1.716-0.735c0.489-0.49,0.734-1.061,0.734-1.715v-30.1
		c0-0.653-0.245-1.225-0.734-1.715c-0.49-0.49-1.062-0.735-1.716-0.735c-0.653,0-1.225,0.245-1.715,0.735
		c-0.49,0.49-0.734,1.062-0.734,1.715V108.216L135.941,108.216z M147.909,75.666h-1.12c-0.654,0-1.225,0.245-1.715,0.735
		c-0.49,0.49-0.735,1.062-0.735,1.715c0,0.654,0.245,1.225,0.735,1.715c0.49,0.49,1.061,0.735,1.715,0.735h0.21h0.91v27.44v0.21
		c0,0.654,0.245,1.225,0.735,1.715c0.489,0.49,1.061,0.735,1.715,0.735c0.652,0,1.225-0.245,1.715-0.735
		c0.49-0.49,0.734-1.061,0.734-1.715v-27.65h6.511h0.21c0.652,0,1.225-0.245,1.715-0.735c0.49-0.49,0.735-1.061,0.735-1.715
		c0-0.653-0.245-1.225-0.735-1.715c-0.49-0.49-1.062-0.735-1.715-0.735h-6.721v-11.55c0-0.653-0.244-1.225-0.734-1.715
		c-0.49-0.49-1.062-0.735-1.715-0.735c-0.654,0-1.226,0.245-1.715,0.735c-0.49,0.49-0.735,1.062-0.735,1.715V75.666L147.909,75.666z
		"></path>
	<path class="st3" d="M32.762,122.146c0,0.652,0.245,1.225,0.735,1.715c0.49,0.49,1.061,0.734,1.715,0.734
		c0.653,0,1.225-0.244,1.715-0.734c0.49-0.49,0.735-1.062,0.735-1.715v-16.521c1.306,1.634,3.36,3.162,6.16,4.585
		c2.8,1.423,5.53,2.135,8.19,2.135c2.66,0,5.156-0.502,7.49-1.505c2.333-1.003,4.375-2.38,6.125-4.13
		c1.75-1.75,3.126-3.791,4.13-6.125c1.003-2.333,1.505-4.83,1.505-7.49c0-2.66-0.502-5.156-1.505-7.49
		c-1.004-2.333-2.38-4.375-4.13-6.125s-3.792-3.125-6.125-4.13c-2.334-1.003-4.83-1.505-7.49-1.505c-2.66,0-5.157,0.502-7.49,1.505
		c-2.334,1.004-4.375,2.38-6.125,4.13s-3.127,3.792-4.13,6.125c-1.004,2.334-1.505,4.83-1.505,7.49v28.84V122.146L32.762,122.146z
		 M38.782,87.531c0.746-1.75,1.773-3.278,3.08-4.585c1.306-1.306,2.835-2.333,4.585-3.08c1.75-0.746,3.605-1.12,5.565-1.12
		c1.96,0,3.815,0.374,5.565,1.12c1.75,0.747,3.278,1.774,4.585,3.08c1.306,1.307,2.333,2.835,3.08,4.585
		c0.746,1.75,1.12,3.605,1.12,5.565c0,1.96-0.374,3.815-1.12,5.565c-0.747,1.75-1.774,3.279-3.08,4.585
		c-1.307,1.307-2.835,2.334-4.585,3.08c-1.75,0.747-3.605,1.12-5.565,1.12c-1.96,0-3.815-0.373-5.565-1.12
		c-1.75-0.746-3.279-1.773-4.585-3.08c-1.307-1.306-2.334-2.835-3.08-4.585c-0.747-1.75-1.12-3.605-1.12-5.565
		C37.662,91.136,38.035,89.281,38.782,87.531L38.782,87.531z M76.232,108.216c0,0.654,0.245,1.225,0.735,1.715
		c0.49,0.49,1.061,0.735,1.715,0.735c0.653,0,1.225-0.245,1.715-0.735c0.49-0.49,0.735-1.061,0.735-1.715v-44.1
		c0-0.653-0.245-1.225-0.735-1.715c-0.49-0.49-1.062-0.735-1.715-0.735c-0.654,0-1.225,0.245-1.715,0.735
		c-0.49,0.49-0.735,1.062-0.735,1.715V108.216L76.232,108.216z M86.451,66.706c0.56,0.56,1.26,0.84,2.1,0.84s1.54-0.28,2.1-0.84
		c0.56-0.56,0.84-1.26,0.84-2.1c0-0.84-0.28-1.54-0.84-2.1c-0.56-0.56-1.26-0.84-2.1-0.84s-1.54,0.28-2.1,0.84
		c-0.56,0.56-0.84,1.26-0.84,2.1C85.612,65.446,85.891,66.146,86.451,66.706L86.451,66.706z M86.031,108.216
		c0,0.654,0.245,1.225,0.735,1.715c0.49,0.49,1.061,0.735,1.715,0.735c0.653,0,1.225-0.245,1.715-0.735
		c0.49-0.49,0.735-1.061,0.735-1.715v-30.1c0-0.653-0.245-1.225-0.735-1.715c-0.49-0.49-1.062-0.735-1.715-0.735
		c-0.654,0-1.225,0.245-1.715,0.735c-0.49,0.49-0.735,1.062-0.735,1.715V108.216L86.031,108.216z M120.155,106.081
		c-1.937,0.91-3.885,1.365-5.845,1.365c-1.96,0-3.815-0.373-5.565-1.12c-1.75-0.746-3.279-1.773-4.585-3.08
		c-1.307-1.306-2.334-2.835-3.08-4.585c-0.747-1.75-1.12-3.605-1.12-5.565c0-1.96,0.373-3.815,1.12-5.565
		c0.746-1.75,1.773-3.278,3.08-4.585c1.306-1.306,2.835-2.333,4.585-3.08c1.75-0.746,3.605-1.12,5.565-1.12
		c1.96,0,3.978,0.444,6.055,1.33c2.076,0.887,3.885,2.45,5.425,4.69c0.514,0.607,1.016,1.155,1.505,1.645
		c0.49,0.49,1.131,0.642,1.926,0.455c0.605-0.14,1.025-0.455,1.26-0.945c0.232-0.49,0.28-1.085,0.14-1.785
		c-0.186-1.073-0.887-2.333-2.1-3.78c-2.147-2.333-4.388-4-6.72-5.005c-2.335-1.003-4.83-1.505-7.49-1.505
		c-2.66,0-5.157,0.502-7.49,1.505c-2.334,1.004-4.375,2.38-6.125,4.13s-3.127,3.792-4.13,6.125c-1.004,2.334-1.505,4.83-1.505,7.49
		c0,2.66,0.501,5.157,1.505,7.49c1.003,2.334,2.38,4.375,4.13,6.125c1.75,1.75,3.791,3.127,6.125,4.13
		c2.333,1.003,4.83,1.505,7.49,1.505c2.66,0,5.155-0.502,7.49-1.505c2.332-1.003,4.572-2.811,6.72-5.425
		c1.073-1.213,1.75-2.333,2.03-3.36c0.232-0.7,0.186-1.353-0.141-1.96c-0.327-0.606-0.864-0.956-1.609-1.05
		c-0.654-0.093-1.237,0.082-1.75,0.525c-0.515,0.444-0.957,0.992-1.33,1.645C123.946,103.55,122.091,105.171,120.155,106.081
		L120.155,106.081z M136.361,66.706c0.56,0.56,1.26,0.84,2.1,0.84c0.84,0,1.54-0.28,2.1-0.84c0.561-0.56,0.841-1.26,0.841-2.1
		c0-0.84-0.28-1.54-0.841-2.1c-0.56-0.56-1.26-0.84-2.1-0.84c-0.84,0-1.54,0.28-2.1,0.84c-0.561,0.56-0.841,1.26-0.841,2.1
		C135.52,65.446,135.8,66.146,136.361,66.706L136.361,66.706z M135.941,108.216c0,0.654,0.244,1.225,0.734,1.715
		c0.49,0.49,1.062,0.735,1.715,0.735c0.653,0,1.226-0.245,1.716-0.735c0.489-0.49,0.734-1.061,0.734-1.715v-30.1
		c0-0.653-0.245-1.225-0.734-1.715c-0.49-0.49-1.062-0.735-1.716-0.735c-0.653,0-1.225,0.245-1.715,0.735
		c-0.49,0.49-0.734,1.062-0.734,1.715V108.216L135.941,108.216z M147.909,75.666h-1.12c-0.654,0-1.225,0.245-1.715,0.735
		c-0.49,0.49-0.735,1.062-0.735,1.715c0,0.654,0.245,1.225,0.735,1.715c0.49,0.49,1.061,0.735,1.715,0.735h0.21h0.91v27.44v0.21
		c0,0.654,0.245,1.225,0.735,1.715c0.489,0.49,1.061,0.735,1.715,0.735c0.652,0,1.225-0.245,1.715-0.735
		c0.49-0.49,0.734-1.061,0.734-1.715v-27.65h6.511h0.21c0.652,0,1.225-0.245,1.715-0.735c0.49-0.49,0.735-1.061,0.735-1.715
		c0-0.653-0.245-1.225-0.735-1.715c-0.49-0.49-1.062-0.735-1.715-0.735h-6.721v-11.55c0-0.653-0.244-1.225-0.734-1.715
		c-0.49-0.49-1.062-0.735-1.715-0.735c-0.654,0-1.226,0.245-1.715,0.735c-0.49,0.49-0.735,1.062-0.735,1.715V75.666L147.909,75.666z
		"></path>
</g>
</svg>
